<svg xmlns="http://www.w3.org/2000/svg" id="Layer_1" data-name="Layer 1" viewBox="0 0 64 64" width="64" height="64"><defs id="defs10"><style id="style2">.cls-1,.cls-5{fill:none}.cls-2{clip-path:url(#clip-path)}.cls-3{fill:#58595b}.cls-4{clip-path:url(#clip-path-2)}.cls-5{stroke:#ebf7fd;stroke-linecap:round;stroke-miterlimit:10;stroke-width:6px}</style><clipPath id="clip-path"><path class="cls-1" d="M205.71 0h-71.42A14.33 14.33 0 0 0 120 14.29v71.42A14.33 14.33 0 0 0 134.29 100h71.43A14.33 14.33 0 0 0 220 85.71V14.29A14.33 14.33 0 0 0 205.71 0z" id="path4" fill="none"/></clipPath><clipPath id="clip-path-2"><path class="cls-1" d="M325.71 0h-71.42A14.33 14.33 0 0 0 240 14.29v71.42A14.33 14.33 0 0 0 254.29 100h71.43A14.33 14.33 0 0 0 340 85.71V14.29A14.33 14.33 0 0 0 325.71 0z" id="path7" fill="none"/></clipPath></defs><title id="title12">mist</title><circle id="path4497" cx="32" cy="32" r="32" fill="#fff" fill-opacity=".51" stroke-width=".879" stroke-linecap="round"/><path class="cls-5" id="line26" fill="none" stroke="#cff7fd" stroke-width="4.84" stroke-linecap="round" stroke-miterlimit="10" d="M34.105 14.506H20.432"/><path class="cls-5" id="line30" fill="none" stroke="#cff7fd" stroke-width="4.84" stroke-linecap="round" stroke-miterlimit="10" d="M19.757 22.93H9.635"/><path class="cls-5" id="line32" fill="none" stroke="#cff7fd" stroke-width="4.84" stroke-linecap="round" stroke-miterlimit="10" d="M35.297 30.09h-9.166"/><path class="cls-5" id="line34" fill="none" stroke="#cff7fd" stroke-width="4.84" stroke-linecap="round" stroke-miterlimit="10" d="M54.693 22.506H45.45"/><path class="cls-5" id="line36" fill="none" stroke="#cff7fd" stroke-width="4.84" stroke-linecap="round" stroke-miterlimit="10" d="M30.669 45.081H8.467"/><path class="cls-5" id="line38" fill="none" stroke="#cff7fd" stroke-width="4.84" stroke-linecap="round" stroke-miterlimit="10" d="M54.798 37.315H32.889"/><path class="cls-5" id="line44" fill="none" stroke="#cff7fd" stroke-width="4.84" stroke-linecap="round" stroke-miterlimit="10" d="M46.115 50.342h-5.259"/></svg>